M48
;DRILL file {KiCad 4.0.7} date 07/19/18 10:16:19
;FORMAT={-:-/ absolute / inch / decimal}
FMAT,2
INCH,TZ
T1C0.030
T2C0.031
T3C0.039
T4C0.060
%
G90
G05
M72
T1
X2.15Y-0.8
X2.15Y-0.9
X2.15Y-1.
X2.15Y-1.1
X2.15Y-1.2
X2.15Y-1.3
X2.15Y-1.4
X2.15Y-1.5
X2.15Y-1.65
X2.15Y-1.75
X2.15Y-1.85
X2.15Y-1.95
X2.15Y-2.05
X2.15Y-2.15
X2.15Y-2.25
X2.15Y-2.35
X2.65Y-0.8
X2.65Y-0.9
X2.65Y-1.
X2.65Y-1.1
X2.65Y-1.2
X2.65Y-1.3
X2.65Y-1.4
X2.65Y-1.5
X2.65Y-1.65
X2.65Y-1.75
X2.65Y-1.85
X2.65Y-1.95
X2.65Y-2.05
X2.65Y-2.15
X2.65Y-2.25
X2.65Y-2.35
T2
X1.15Y-1.
X1.15Y-1.1
X1.15Y-1.2
X1.15Y-1.3
X1.15Y-1.4
X1.15Y-1.5
X1.15Y-1.6
X1.15Y-1.7
X1.15Y-1.8
X1.15Y-1.9
X1.15Y-2.
X1.15Y-2.1
X1.15Y-2.2
X1.15Y-2.3
X1.15Y-2.4
X1.75Y-1.
X1.75Y-1.1
X1.75Y-1.2
X1.75Y-1.3
X1.75Y-1.4
X1.75Y-1.5
X1.75Y-1.6
X1.75Y-1.7
X1.75Y-1.8
X1.75Y-1.9
X1.75Y-2.
X1.75Y-2.1
X1.75Y-2.2
X1.75Y-2.3
X1.75Y-2.4
X2.35Y-0.9
X2.35Y-1.75
X2.4484Y-0.9
X2.4484Y-1.75
T4
X3.15Y-0.65
X3.15Y-0.85
X3.15Y-1.05
X3.15Y-1.25
X3.15Y-1.45
X3.15Y-1.7
X3.15Y-1.9
X3.15Y-2.1
X3.15Y-2.3
X3.15Y-2.5
T3
X0.7106Y-2.0138G85X0.7894Y-2.0138
G05
X0.7106Y-2.25G85X0.7894Y-2.25
G05
X0.935Y-2.1713G85X0.935Y-2.0925
G05
T0
M30
