G04 #@! TF.FileFunction,Legend,Top*
%FSLAX46Y46*%
G04 Gerber Fmt 4.6, Leading zero omitted, Abs format (unit mm)*
G04 Created by KiCad (PCBNEW 4.0.7) date 07/19/18 10:14:45*
%MOMM*%
%LPD*%
G01*
G04 APERTURE LIST*
%ADD10C,0.100000*%
%ADD11C,0.120000*%
%ADD12C,0.150000*%
G04 APERTURE END LIST*
D10*
D11*
X23650000Y-56150000D02*
X23650000Y-64950000D01*
X23650000Y-64950000D02*
X14450000Y-64950000D01*
X20950000Y-50250000D02*
X23650000Y-50250000D01*
X23650000Y-50250000D02*
X23650000Y-52150000D01*
X14450000Y-64950000D02*
X14450000Y-50250000D01*
X14450000Y-50250000D02*
X17050000Y-50250000D01*
D12*
X53340000Y-19050000D02*
X68580000Y-19050000D01*
X68580000Y-19050000D02*
X68580000Y-39370000D01*
X68580000Y-39370000D02*
X53340000Y-39370000D01*
X53340000Y-39370000D02*
X53340000Y-19050000D01*
D11*
X63245722Y-43270277D02*
G75*
G03X58634420Y-43270000I-2305722J-1179723D01*
G01*
X63245722Y-45629723D02*
G75*
G02X58634420Y-45630000I-2305722J1179723D01*
G01*
X63245722Y-45629723D02*
G75*
G03X63245580Y-43270000I-2305722J1179723D01*
G01*
X60940000Y-41900000D02*
X60940000Y-47000000D01*
X60980000Y-41900000D02*
X60980000Y-47000000D01*
X61020000Y-41901000D02*
X61020000Y-46999000D01*
X61060000Y-41902000D02*
X61060000Y-46998000D01*
X61100000Y-41904000D02*
X61100000Y-46996000D01*
X61140000Y-41907000D02*
X61140000Y-46993000D01*
X61180000Y-41911000D02*
X61180000Y-46989000D01*
X61220000Y-41915000D02*
X61220000Y-43470000D01*
X61220000Y-45430000D02*
X61220000Y-46985000D01*
X61260000Y-41919000D02*
X61260000Y-43470000D01*
X61260000Y-45430000D02*
X61260000Y-46981000D01*
X61300000Y-41925000D02*
X61300000Y-43470000D01*
X61300000Y-45430000D02*
X61300000Y-46975000D01*
X61340000Y-41931000D02*
X61340000Y-43470000D01*
X61340000Y-45430000D02*
X61340000Y-46969000D01*
X61380000Y-41937000D02*
X61380000Y-43470000D01*
X61380000Y-45430000D02*
X61380000Y-46963000D01*
X61420000Y-41944000D02*
X61420000Y-43470000D01*
X61420000Y-45430000D02*
X61420000Y-46956000D01*
X61460000Y-41952000D02*
X61460000Y-43470000D01*
X61460000Y-45430000D02*
X61460000Y-46948000D01*
X61500000Y-41961000D02*
X61500000Y-43470000D01*
X61500000Y-45430000D02*
X61500000Y-46939000D01*
X61540000Y-41970000D02*
X61540000Y-43470000D01*
X61540000Y-45430000D02*
X61540000Y-46930000D01*
X61580000Y-41980000D02*
X61580000Y-43470000D01*
X61580000Y-45430000D02*
X61580000Y-46920000D01*
X61620000Y-41990000D02*
X61620000Y-43470000D01*
X61620000Y-45430000D02*
X61620000Y-46910000D01*
X61661000Y-42002000D02*
X61661000Y-43470000D01*
X61661000Y-45430000D02*
X61661000Y-46898000D01*
X61701000Y-42014000D02*
X61701000Y-43470000D01*
X61701000Y-45430000D02*
X61701000Y-46886000D01*
X61741000Y-42026000D02*
X61741000Y-43470000D01*
X61741000Y-45430000D02*
X61741000Y-46874000D01*
X61781000Y-42040000D02*
X61781000Y-43470000D01*
X61781000Y-45430000D02*
X61781000Y-46860000D01*
X61821000Y-42054000D02*
X61821000Y-43470000D01*
X61821000Y-45430000D02*
X61821000Y-46846000D01*
X61861000Y-42068000D02*
X61861000Y-43470000D01*
X61861000Y-45430000D02*
X61861000Y-46832000D01*
X61901000Y-42084000D02*
X61901000Y-43470000D01*
X61901000Y-45430000D02*
X61901000Y-46816000D01*
X61941000Y-42100000D02*
X61941000Y-43470000D01*
X61941000Y-45430000D02*
X61941000Y-46800000D01*
X61981000Y-42117000D02*
X61981000Y-43470000D01*
X61981000Y-45430000D02*
X61981000Y-46783000D01*
X62021000Y-42135000D02*
X62021000Y-43470000D01*
X62021000Y-45430000D02*
X62021000Y-46765000D01*
X62061000Y-42154000D02*
X62061000Y-43470000D01*
X62061000Y-45430000D02*
X62061000Y-46746000D01*
X62101000Y-42174000D02*
X62101000Y-43470000D01*
X62101000Y-45430000D02*
X62101000Y-46726000D01*
X62141000Y-42194000D02*
X62141000Y-43470000D01*
X62141000Y-45430000D02*
X62141000Y-46706000D01*
X62181000Y-42216000D02*
X62181000Y-43470000D01*
X62181000Y-45430000D02*
X62181000Y-46684000D01*
X62221000Y-42238000D02*
X62221000Y-43470000D01*
X62221000Y-45430000D02*
X62221000Y-46662000D01*
X62261000Y-42261000D02*
X62261000Y-43470000D01*
X62261000Y-45430000D02*
X62261000Y-46639000D01*
X62301000Y-42285000D02*
X62301000Y-43470000D01*
X62301000Y-45430000D02*
X62301000Y-46615000D01*
X62341000Y-42310000D02*
X62341000Y-43470000D01*
X62341000Y-45430000D02*
X62341000Y-46590000D01*
X62381000Y-42337000D02*
X62381000Y-43470000D01*
X62381000Y-45430000D02*
X62381000Y-46563000D01*
X62421000Y-42364000D02*
X62421000Y-43470000D01*
X62421000Y-45430000D02*
X62421000Y-46536000D01*
X62461000Y-42392000D02*
X62461000Y-43470000D01*
X62461000Y-45430000D02*
X62461000Y-46508000D01*
X62501000Y-42422000D02*
X62501000Y-43470000D01*
X62501000Y-45430000D02*
X62501000Y-46478000D01*
X62541000Y-42453000D02*
X62541000Y-43470000D01*
X62541000Y-45430000D02*
X62541000Y-46447000D01*
X62581000Y-42485000D02*
X62581000Y-43470000D01*
X62581000Y-45430000D02*
X62581000Y-46415000D01*
X62621000Y-42518000D02*
X62621000Y-43470000D01*
X62621000Y-45430000D02*
X62621000Y-46382000D01*
X62661000Y-42553000D02*
X62661000Y-43470000D01*
X62661000Y-45430000D02*
X62661000Y-46347000D01*
X62701000Y-42589000D02*
X62701000Y-43470000D01*
X62701000Y-45430000D02*
X62701000Y-46311000D01*
X62741000Y-42627000D02*
X62741000Y-43470000D01*
X62741000Y-45430000D02*
X62741000Y-46273000D01*
X62781000Y-42667000D02*
X62781000Y-43470000D01*
X62781000Y-45430000D02*
X62781000Y-46233000D01*
X62821000Y-42708000D02*
X62821000Y-43470000D01*
X62821000Y-45430000D02*
X62821000Y-46192000D01*
X62861000Y-42751000D02*
X62861000Y-43470000D01*
X62861000Y-45430000D02*
X62861000Y-46149000D01*
X62901000Y-42796000D02*
X62901000Y-43470000D01*
X62901000Y-45430000D02*
X62901000Y-46104000D01*
X62941000Y-42844000D02*
X62941000Y-43470000D01*
X62941000Y-45430000D02*
X62941000Y-46056000D01*
X62981000Y-42894000D02*
X62981000Y-43470000D01*
X62981000Y-45430000D02*
X62981000Y-46006000D01*
X63021000Y-42946000D02*
X63021000Y-43470000D01*
X63021000Y-45430000D02*
X63021000Y-45954000D01*
X63061000Y-43002000D02*
X63061000Y-43470000D01*
X63061000Y-45430000D02*
X63061000Y-45898000D01*
X63101000Y-43060000D02*
X63101000Y-43470000D01*
X63101000Y-45430000D02*
X63101000Y-45840000D01*
X63141000Y-43123000D02*
X63141000Y-43470000D01*
X63141000Y-45430000D02*
X63141000Y-45777000D01*
X63181000Y-43189000D02*
X63181000Y-45711000D01*
X63221000Y-43261000D02*
X63221000Y-45639000D01*
X63261000Y-43338000D02*
X63261000Y-45562000D01*
X63301000Y-43422000D02*
X63301000Y-45478000D01*
X63341000Y-43516000D02*
X63341000Y-45384000D01*
X63381000Y-43621000D02*
X63381000Y-45279000D01*
X63421000Y-43743000D02*
X63421000Y-45157000D01*
X63461000Y-43891000D02*
X63461000Y-45009000D01*
X63501000Y-44096000D02*
X63501000Y-44804000D01*
X57490000Y-44450000D02*
X58690000Y-44450000D01*
X58090000Y-43800000D02*
X58090000Y-45100000D01*
X63245722Y-21680277D02*
G75*
G03X58634420Y-21680000I-2305722J-1179723D01*
G01*
X63245722Y-24039723D02*
G75*
G02X58634420Y-24040000I-2305722J1179723D01*
G01*
X63245722Y-24039723D02*
G75*
G03X63245580Y-21680000I-2305722J1179723D01*
G01*
X60940000Y-20310000D02*
X60940000Y-25410000D01*
X60980000Y-20310000D02*
X60980000Y-25410000D01*
X61020000Y-20311000D02*
X61020000Y-25409000D01*
X61060000Y-20312000D02*
X61060000Y-25408000D01*
X61100000Y-20314000D02*
X61100000Y-25406000D01*
X61140000Y-20317000D02*
X61140000Y-25403000D01*
X61180000Y-20321000D02*
X61180000Y-25399000D01*
X61220000Y-20325000D02*
X61220000Y-21880000D01*
X61220000Y-23840000D02*
X61220000Y-25395000D01*
X61260000Y-20329000D02*
X61260000Y-21880000D01*
X61260000Y-23840000D02*
X61260000Y-25391000D01*
X61300000Y-20335000D02*
X61300000Y-21880000D01*
X61300000Y-23840000D02*
X61300000Y-25385000D01*
X61340000Y-20341000D02*
X61340000Y-21880000D01*
X61340000Y-23840000D02*
X61340000Y-25379000D01*
X61380000Y-20347000D02*
X61380000Y-21880000D01*
X61380000Y-23840000D02*
X61380000Y-25373000D01*
X61420000Y-20354000D02*
X61420000Y-21880000D01*
X61420000Y-23840000D02*
X61420000Y-25366000D01*
X61460000Y-20362000D02*
X61460000Y-21880000D01*
X61460000Y-23840000D02*
X61460000Y-25358000D01*
X61500000Y-20371000D02*
X61500000Y-21880000D01*
X61500000Y-23840000D02*
X61500000Y-25349000D01*
X61540000Y-20380000D02*
X61540000Y-21880000D01*
X61540000Y-23840000D02*
X61540000Y-25340000D01*
X61580000Y-20390000D02*
X61580000Y-21880000D01*
X61580000Y-23840000D02*
X61580000Y-25330000D01*
X61620000Y-20400000D02*
X61620000Y-21880000D01*
X61620000Y-23840000D02*
X61620000Y-25320000D01*
X61661000Y-20412000D02*
X61661000Y-21880000D01*
X61661000Y-23840000D02*
X61661000Y-25308000D01*
X61701000Y-20424000D02*
X61701000Y-21880000D01*
X61701000Y-23840000D02*
X61701000Y-25296000D01*
X61741000Y-20436000D02*
X61741000Y-21880000D01*
X61741000Y-23840000D02*
X61741000Y-25284000D01*
X61781000Y-20450000D02*
X61781000Y-21880000D01*
X61781000Y-23840000D02*
X61781000Y-25270000D01*
X61821000Y-20464000D02*
X61821000Y-21880000D01*
X61821000Y-23840000D02*
X61821000Y-25256000D01*
X61861000Y-20478000D02*
X61861000Y-21880000D01*
X61861000Y-23840000D02*
X61861000Y-25242000D01*
X61901000Y-20494000D02*
X61901000Y-21880000D01*
X61901000Y-23840000D02*
X61901000Y-25226000D01*
X61941000Y-20510000D02*
X61941000Y-21880000D01*
X61941000Y-23840000D02*
X61941000Y-25210000D01*
X61981000Y-20527000D02*
X61981000Y-21880000D01*
X61981000Y-23840000D02*
X61981000Y-25193000D01*
X62021000Y-20545000D02*
X62021000Y-21880000D01*
X62021000Y-23840000D02*
X62021000Y-25175000D01*
X62061000Y-20564000D02*
X62061000Y-21880000D01*
X62061000Y-23840000D02*
X62061000Y-25156000D01*
X62101000Y-20584000D02*
X62101000Y-21880000D01*
X62101000Y-23840000D02*
X62101000Y-25136000D01*
X62141000Y-20604000D02*
X62141000Y-21880000D01*
X62141000Y-23840000D02*
X62141000Y-25116000D01*
X62181000Y-20626000D02*
X62181000Y-21880000D01*
X62181000Y-23840000D02*
X62181000Y-25094000D01*
X62221000Y-20648000D02*
X62221000Y-21880000D01*
X62221000Y-23840000D02*
X62221000Y-25072000D01*
X62261000Y-20671000D02*
X62261000Y-21880000D01*
X62261000Y-23840000D02*
X62261000Y-25049000D01*
X62301000Y-20695000D02*
X62301000Y-21880000D01*
X62301000Y-23840000D02*
X62301000Y-25025000D01*
X62341000Y-20720000D02*
X62341000Y-21880000D01*
X62341000Y-23840000D02*
X62341000Y-25000000D01*
X62381000Y-20747000D02*
X62381000Y-21880000D01*
X62381000Y-23840000D02*
X62381000Y-24973000D01*
X62421000Y-20774000D02*
X62421000Y-21880000D01*
X62421000Y-23840000D02*
X62421000Y-24946000D01*
X62461000Y-20802000D02*
X62461000Y-21880000D01*
X62461000Y-23840000D02*
X62461000Y-24918000D01*
X62501000Y-20832000D02*
X62501000Y-21880000D01*
X62501000Y-23840000D02*
X62501000Y-24888000D01*
X62541000Y-20863000D02*
X62541000Y-21880000D01*
X62541000Y-23840000D02*
X62541000Y-24857000D01*
X62581000Y-20895000D02*
X62581000Y-21880000D01*
X62581000Y-23840000D02*
X62581000Y-24825000D01*
X62621000Y-20928000D02*
X62621000Y-21880000D01*
X62621000Y-23840000D02*
X62621000Y-24792000D01*
X62661000Y-20963000D02*
X62661000Y-21880000D01*
X62661000Y-23840000D02*
X62661000Y-24757000D01*
X62701000Y-20999000D02*
X62701000Y-21880000D01*
X62701000Y-23840000D02*
X62701000Y-24721000D01*
X62741000Y-21037000D02*
X62741000Y-21880000D01*
X62741000Y-23840000D02*
X62741000Y-24683000D01*
X62781000Y-21077000D02*
X62781000Y-21880000D01*
X62781000Y-23840000D02*
X62781000Y-24643000D01*
X62821000Y-21118000D02*
X62821000Y-21880000D01*
X62821000Y-23840000D02*
X62821000Y-24602000D01*
X62861000Y-21161000D02*
X62861000Y-21880000D01*
X62861000Y-23840000D02*
X62861000Y-24559000D01*
X62901000Y-21206000D02*
X62901000Y-21880000D01*
X62901000Y-23840000D02*
X62901000Y-24514000D01*
X62941000Y-21254000D02*
X62941000Y-21880000D01*
X62941000Y-23840000D02*
X62941000Y-24466000D01*
X62981000Y-21304000D02*
X62981000Y-21880000D01*
X62981000Y-23840000D02*
X62981000Y-24416000D01*
X63021000Y-21356000D02*
X63021000Y-21880000D01*
X63021000Y-23840000D02*
X63021000Y-24364000D01*
X63061000Y-21412000D02*
X63061000Y-21880000D01*
X63061000Y-23840000D02*
X63061000Y-24308000D01*
X63101000Y-21470000D02*
X63101000Y-21880000D01*
X63101000Y-23840000D02*
X63101000Y-24250000D01*
X63141000Y-21533000D02*
X63141000Y-21880000D01*
X63141000Y-23840000D02*
X63141000Y-24187000D01*
X63181000Y-21599000D02*
X63181000Y-24121000D01*
X63221000Y-21671000D02*
X63221000Y-24049000D01*
X63261000Y-21748000D02*
X63261000Y-23972000D01*
X63301000Y-21832000D02*
X63301000Y-23888000D01*
X63341000Y-21926000D02*
X63341000Y-23794000D01*
X63381000Y-22031000D02*
X63381000Y-23689000D01*
X63421000Y-22153000D02*
X63421000Y-23567000D01*
X63461000Y-22301000D02*
X63461000Y-23419000D01*
X63501000Y-22506000D02*
X63501000Y-23214000D01*
X57490000Y-22860000D02*
X58690000Y-22860000D01*
X58090000Y-22210000D02*
X58090000Y-23510000D01*
X76200000Y-13970000D02*
X76200000Y-39370000D01*
X77470000Y-13970000D02*
X77470000Y-39370000D01*
X83820000Y-13970000D02*
X83820000Y-39370000D01*
X83820000Y-39370000D02*
X76200000Y-39370000D01*
X83820000Y-13970000D02*
X76200000Y-13970000D01*
X76200000Y-40640000D02*
X76200000Y-66040000D01*
X77470000Y-40640000D02*
X77470000Y-66040000D01*
X83820000Y-40640000D02*
X83820000Y-66040000D01*
X83820000Y-66040000D02*
X76200000Y-66040000D01*
X83820000Y-40640000D02*
X76200000Y-40640000D01*
X43180000Y-59690000D02*
X43180000Y-62230000D01*
X43180000Y-62230000D02*
X45850000Y-62230000D01*
X45850000Y-59690000D02*
X45850000Y-21460000D01*
X45850000Y-64900000D02*
X45850000Y-62230000D01*
X30480000Y-62230000D02*
X27810000Y-62230000D01*
X30480000Y-62230000D02*
X30480000Y-24130000D01*
X30480000Y-24130000D02*
X27810000Y-24130000D01*
X43180000Y-59690000D02*
X45850000Y-59690000D01*
X43180000Y-59690000D02*
X43180000Y-24130000D01*
X43180000Y-24130000D02*
X45850000Y-24130000D01*
X45850000Y-21460000D02*
X27810000Y-21460000D01*
X27810000Y-21460000D02*
X27810000Y-64900000D01*
X27810000Y-64900000D02*
X45850000Y-64900000D01*
D12*
X53340000Y-40640000D02*
X68580000Y-40640000D01*
X68580000Y-40640000D02*
X68580000Y-60960000D01*
X68580000Y-60960000D02*
X53340000Y-60960000D01*
X53340000Y-60960000D02*
X53340000Y-40640000D01*
X24252381Y-59933333D02*
X24966667Y-59933333D01*
X25109524Y-59980953D01*
X25204762Y-60076191D01*
X25252381Y-60219048D01*
X25252381Y-60314286D01*
X24252381Y-59552381D02*
X24252381Y-58933333D01*
X24633333Y-59266667D01*
X24633333Y-59123809D01*
X24680952Y-59028571D01*
X24728571Y-58980952D01*
X24823810Y-58933333D01*
X25061905Y-58933333D01*
X25157143Y-58980952D01*
X25204762Y-59028571D01*
X25252381Y-59123809D01*
X25252381Y-59409524D01*
X25204762Y-59504762D01*
X25157143Y-59552381D01*
X65278095Y-17232381D02*
X65278095Y-18041905D01*
X65325714Y-18137143D01*
X65373333Y-18184762D01*
X65468571Y-18232381D01*
X65659048Y-18232381D01*
X65754286Y-18184762D01*
X65801905Y-18137143D01*
X65849524Y-18041905D01*
X65849524Y-17232381D01*
X66278095Y-17327619D02*
X66325714Y-17280000D01*
X66420952Y-17232381D01*
X66659048Y-17232381D01*
X66754286Y-17280000D01*
X66801905Y-17327619D01*
X66849524Y-17422857D01*
X66849524Y-17518095D01*
X66801905Y-17660952D01*
X66230476Y-18232381D01*
X66849524Y-18232381D01*
X59059048Y-41092381D02*
X58487619Y-41092381D01*
X58773333Y-41092381D02*
X58773333Y-40092381D01*
X58678095Y-40235238D01*
X58582857Y-40330476D01*
X58487619Y-40378095D01*
X59678095Y-40092381D02*
X59773334Y-40092381D01*
X59868572Y-40140000D01*
X59916191Y-40187619D01*
X59963810Y-40282857D01*
X60011429Y-40473333D01*
X60011429Y-40711429D01*
X59963810Y-40901905D01*
X59916191Y-40997143D01*
X59868572Y-41044762D01*
X59773334Y-41092381D01*
X59678095Y-41092381D01*
X59582857Y-41044762D01*
X59535238Y-40997143D01*
X59487619Y-40901905D01*
X59440000Y-40711429D01*
X59440000Y-40473333D01*
X59487619Y-40282857D01*
X59535238Y-40187619D01*
X59582857Y-40140000D01*
X59678095Y-40092381D01*
X60630476Y-40092381D02*
X60725715Y-40092381D01*
X60820953Y-40140000D01*
X60868572Y-40187619D01*
X60916191Y-40282857D01*
X60963810Y-40473333D01*
X60963810Y-40711429D01*
X60916191Y-40901905D01*
X60868572Y-40997143D01*
X60820953Y-41044762D01*
X60725715Y-41092381D01*
X60630476Y-41092381D01*
X60535238Y-41044762D01*
X60487619Y-40997143D01*
X60440000Y-40901905D01*
X60392381Y-40711429D01*
X60392381Y-40473333D01*
X60440000Y-40282857D01*
X60487619Y-40187619D01*
X60535238Y-40140000D01*
X60630476Y-40092381D01*
X61820953Y-40425714D02*
X61820953Y-41092381D01*
X61392381Y-40425714D02*
X61392381Y-40949524D01*
X61440000Y-41044762D01*
X61535238Y-41092381D01*
X61678096Y-41092381D01*
X61773334Y-41044762D01*
X61820953Y-40997143D01*
X62154286Y-40425714D02*
X62535238Y-40425714D01*
X62297143Y-41092381D02*
X62297143Y-40235238D01*
X62344762Y-40140000D01*
X62440000Y-40092381D01*
X62535238Y-40092381D01*
X63392382Y-41092381D02*
X62820953Y-41092381D01*
X63106667Y-41092381D02*
X63106667Y-40092381D01*
X63011429Y-40235238D01*
X62916191Y-40330476D01*
X62820953Y-40378095D01*
X59059048Y-19502381D02*
X58487619Y-19502381D01*
X58773333Y-19502381D02*
X58773333Y-18502381D01*
X58678095Y-18645238D01*
X58582857Y-18740476D01*
X58487619Y-18788095D01*
X59678095Y-18502381D02*
X59773334Y-18502381D01*
X59868572Y-18550000D01*
X59916191Y-18597619D01*
X59963810Y-18692857D01*
X60011429Y-18883333D01*
X60011429Y-19121429D01*
X59963810Y-19311905D01*
X59916191Y-19407143D01*
X59868572Y-19454762D01*
X59773334Y-19502381D01*
X59678095Y-19502381D01*
X59582857Y-19454762D01*
X59535238Y-19407143D01*
X59487619Y-19311905D01*
X59440000Y-19121429D01*
X59440000Y-18883333D01*
X59487619Y-18692857D01*
X59535238Y-18597619D01*
X59582857Y-18550000D01*
X59678095Y-18502381D01*
X60630476Y-18502381D02*
X60725715Y-18502381D01*
X60820953Y-18550000D01*
X60868572Y-18597619D01*
X60916191Y-18692857D01*
X60963810Y-18883333D01*
X60963810Y-19121429D01*
X60916191Y-19311905D01*
X60868572Y-19407143D01*
X60820953Y-19454762D01*
X60725715Y-19502381D01*
X60630476Y-19502381D01*
X60535238Y-19454762D01*
X60487619Y-19407143D01*
X60440000Y-19311905D01*
X60392381Y-19121429D01*
X60392381Y-18883333D01*
X60440000Y-18692857D01*
X60487619Y-18597619D01*
X60535238Y-18550000D01*
X60630476Y-18502381D01*
X61820953Y-18835714D02*
X61820953Y-19502381D01*
X61392381Y-18835714D02*
X61392381Y-19359524D01*
X61440000Y-19454762D01*
X61535238Y-19502381D01*
X61678096Y-19502381D01*
X61773334Y-19454762D01*
X61820953Y-19407143D01*
X62154286Y-18835714D02*
X62535238Y-18835714D01*
X62297143Y-19502381D02*
X62297143Y-18645238D01*
X62344762Y-18550000D01*
X62440000Y-18502381D01*
X62535238Y-18502381D01*
X62820953Y-18597619D02*
X62868572Y-18550000D01*
X62963810Y-18502381D01*
X63201906Y-18502381D01*
X63297144Y-18550000D01*
X63344763Y-18597619D01*
X63392382Y-18692857D01*
X63392382Y-18788095D01*
X63344763Y-18930952D01*
X62773334Y-19502381D01*
X63392382Y-19502381D01*
X84012381Y-26993333D02*
X84726667Y-26993333D01*
X84869524Y-27040953D01*
X84964762Y-27136191D01*
X85012381Y-27279048D01*
X85012381Y-27374286D01*
X85012381Y-25993333D02*
X85012381Y-26564762D01*
X85012381Y-26279048D02*
X84012381Y-26279048D01*
X84155238Y-26374286D01*
X84250476Y-26469524D01*
X84298095Y-26564762D01*
X84012381Y-53663333D02*
X84726667Y-53663333D01*
X84869524Y-53710953D01*
X84964762Y-53806191D01*
X85012381Y-53949048D01*
X85012381Y-54044286D01*
X84107619Y-53234762D02*
X84060000Y-53187143D01*
X84012381Y-53091905D01*
X84012381Y-52853809D01*
X84060000Y-52758571D01*
X84107619Y-52710952D01*
X84202857Y-52663333D01*
X84298095Y-52663333D01*
X84440952Y-52710952D01*
X85012381Y-53282381D01*
X85012381Y-52663333D01*
X36068095Y-65492381D02*
X36068095Y-66301905D01*
X36115714Y-66397143D01*
X36163333Y-66444762D01*
X36258571Y-66492381D01*
X36449048Y-66492381D01*
X36544286Y-66444762D01*
X36591905Y-66397143D01*
X36639524Y-66301905D01*
X36639524Y-65492381D01*
X37639524Y-66492381D02*
X37068095Y-66492381D01*
X37353809Y-66492381D02*
X37353809Y-65492381D01*
X37258571Y-65635238D01*
X37163333Y-65730476D01*
X37068095Y-65778095D01*
X65278095Y-38822381D02*
X65278095Y-39631905D01*
X65325714Y-39727143D01*
X65373333Y-39774762D01*
X65468571Y-39822381D01*
X65659048Y-39822381D01*
X65754286Y-39774762D01*
X65801905Y-39727143D01*
X65849524Y-39631905D01*
X65849524Y-38822381D01*
X66230476Y-38822381D02*
X66849524Y-38822381D01*
X66516190Y-39203333D01*
X66659048Y-39203333D01*
X66754286Y-39250952D01*
X66801905Y-39298571D01*
X66849524Y-39393810D01*
X66849524Y-39631905D01*
X66801905Y-39727143D01*
X66754286Y-39774762D01*
X66659048Y-39822381D01*
X66373333Y-39822381D01*
X66278095Y-39774762D01*
X66230476Y-39727143D01*
M02*
