G04 #@! TF.FileFunction,Copper,L1,Top,Signal*
%FSLAX46Y46*%
G04 Gerber Fmt 4.6, Leading zero omitted, Abs format (unit mm)*
G04 Created by KiCad (PCBNEW 4.0.7) date 07/19/18 10:14:45*
%MOMM*%
%LPD*%
G01*
G04 APERTURE LIST*
%ADD10C,0.100000*%
%ADD11R,3.500000X3.500000*%
%ADD12C,1.600000*%
%ADD13R,1.600000X1.600000*%
%ADD14C,3.000000*%
%ADD15R,3.000000X3.000000*%
%ADD16O,1.600000X1.600000*%
G04 APERTURE END LIST*
D10*
D11*
X19050000Y-51150000D03*
X19050000Y-57150000D03*
X23750000Y-54150000D03*
D12*
X54610000Y-20320000D03*
X54610000Y-22860000D03*
X54610000Y-25400000D03*
X54610000Y-27940000D03*
X54610000Y-30480000D03*
X54610000Y-33020000D03*
X54610000Y-35560000D03*
X54610000Y-38100000D03*
D13*
X67310000Y-38100000D03*
D12*
X67310000Y-35560000D03*
X67310000Y-33020000D03*
X67310000Y-30480000D03*
X67310000Y-27940000D03*
X67310000Y-25400000D03*
D13*
X67310000Y-22860000D03*
D12*
X67310000Y-20320000D03*
D13*
X59690000Y-44450000D03*
D12*
X62190000Y-44450000D03*
D13*
X59690000Y-22860000D03*
D12*
X62190000Y-22860000D03*
D14*
X80010000Y-21590000D03*
X80010000Y-26670000D03*
D15*
X80010000Y-16510000D03*
D14*
X80010000Y-31750000D03*
X80010000Y-36830000D03*
X80010000Y-48260000D03*
X80010000Y-53340000D03*
D15*
X80010000Y-43180000D03*
D14*
X80010000Y-58420000D03*
X80010000Y-63500000D03*
D13*
X44450000Y-60960000D03*
D16*
X29210000Y-27940000D03*
X44450000Y-58420000D03*
X29210000Y-30480000D03*
X44450000Y-55880000D03*
X29210000Y-33020000D03*
X44450000Y-53340000D03*
X29210000Y-35560000D03*
X44450000Y-50800000D03*
X29210000Y-38100000D03*
X44450000Y-48260000D03*
X29210000Y-40640000D03*
X44450000Y-45720000D03*
X29210000Y-43180000D03*
X44450000Y-43180000D03*
X29210000Y-45720000D03*
X44450000Y-40640000D03*
X29210000Y-48260000D03*
X44450000Y-38100000D03*
X29210000Y-50800000D03*
X44450000Y-35560000D03*
X29210000Y-53340000D03*
X44450000Y-33020000D03*
X29210000Y-55880000D03*
X44450000Y-30480000D03*
X29210000Y-58420000D03*
X44450000Y-27940000D03*
X29210000Y-60960000D03*
X44450000Y-25400000D03*
X29210000Y-25400000D03*
D12*
X54610000Y-41910000D03*
X54610000Y-44450000D03*
X54610000Y-46990000D03*
X54610000Y-49530000D03*
X54610000Y-52070000D03*
X54610000Y-54610000D03*
X54610000Y-57150000D03*
X54610000Y-59690000D03*
D13*
X67310000Y-59690000D03*
D12*
X67310000Y-57150000D03*
X67310000Y-54610000D03*
X67310000Y-52070000D03*
X67310000Y-49530000D03*
X67310000Y-46990000D03*
D13*
X67310000Y-44450000D03*
D12*
X67310000Y-41910000D03*
M02*
